# xmcd
#
# Track frame offsets:
#	150
#	14007
#	30330
#
# Disc length: 544 seconds
#
# Revision: 0
# Processed by: cddbd v1.4PL0 Copyright (c) Steve Scherf et al.
# Submitted via: audiograbber 1.82.02
#
DISCID=19021e03
DTITLE=Rhesin - Rhesin
DYEAR=2000
DGENRE=Blues
TTITLE0=Ideal Alice
TTITLE1=Fire Escape
TTITLE2=Oh, And By The Way
EXTD=
EXTT0=
EXTT1=
EXTT2=
PLAYORDER=
